<?xml version="1.0" encoding="iso-8859-1"?>
<!-- Generator: Adobe Illustrator 19.0.0, SVG Export Plug-In . SVG Version: 6.00 Build 0)  -->
<svg version="1.1" id="Capa_1" xmlns="http://www.w3.org/2000/svg" xmlns:xlink="http://www.w3.org/1999/xlink" x="0px" y="0px"
	 viewBox="0 0 491.52 491.52" style="enable-background:new 0 0 491.52 491.52;" xml:space="preserve">
<circle style="fill:#45B39C;" cx="245.76" cy="245.76" r="245.76"/>
<path style="opacity:0.1;enable-background:new    ;" d="M489.373,277.8L316.518,104.946c0,13.619-9.523,24.986-22.323,27.852
	l-37.12,3.738c-7.526,0.769-15.104,0.769-22.63,0l-43.571-4.403c0,0-40.755-11.11-53.094,34.56c0,0-11.059,37.99,4.966,68.352
	c0,0,22.835,73.779,27.136,117.76c0,0,3.396,21.194,13.148,30.073l-0.01,0.032l104.928,104.928
	C393.208,469.617,475.473,384.48,489.373,277.8z"/>
<path style="fill:#EBF0F3;" d="M353.718,166.67c-12.339-45.651-53.054-34.547-53.054-34.547l-43.583,4.408
	c-7.527,0.761-15.114,0.761-22.642,0l-43.584-4.408c0,0-40.715-11.104-53.053,34.547c0,0-11.104,37.994,4.935,68.35
	c0,0,22.826,73.812,27.143,117.784c0,0,4.893,30.944,20.029,33.756c0,0,13.284-2.123,18.837-18.162l24.675-60.11
	c0,0,2.972-6.497,8.8-9.042c2.309-1.009,4.875-0.85,7.12,0.293c5.511,2.803,8.756,8.75,8.756,8.75l24.676,60.11
	c5.552,16.039,18.836,18.162,18.836,18.162c15.136-2.812,20.029-33.756,20.029-33.756c4.318-43.971,27.143-117.784,27.143-117.784
	C364.822,204.665,353.718,166.67,353.718,166.67z"/>
<g>
	<path style="fill:#FFFFFF;" d="M316.522,104.96c0,15.749-12.767,28.516-28.515,28.516c15.748,0,28.515,12.766,28.515,28.515
		c0-15.749,12.766-28.515,28.515-28.515C329.288,133.476,316.522,120.709,316.522,104.96z"/>
	<path style="fill:#FFFFFF;" d="M321.932,157.735c0,9.96-8.075,18.035-18.035,18.035c9.96,0,18.035,8.074,18.035,18.035
		c0-9.961,8.074-18.035,18.035-18.035C330.006,175.77,321.932,167.695,321.932,157.735z"/>
</g>
<g>
</g>
<g>
</g>
<g>
</g>
<g>
</g>
<g>
</g>
<g>
</g>
<g>
</g>
<g>
</g>
<g>
</g>
<g>
</g>
<g>
</g>
<g>
</g>
<g>
</g>
<g>
</g>
<g>
</g>
</svg>
